<svg xmlns="http://www.w3.org/2000/svg" xmlns:xlink="http://www.w3.org/1999/xlink" width="288" zoomAndPan="magnify" viewBox="0 0 216 215.999996" height="288" preserveAspectRatio="xMidYMid meet" version="1.0"><defs><clipPath id="b184495b4f"><path d="M 38 40 L 177 40 L 177 179.011719 L 38 179.011719 Z M 38 40 " clip-rule="nonzero"/></clipPath></defs><g clip-path="url(#b184495b4f)"><path fill="#0072ff" d="M 157.710938 132.089844 L 170.304688 127.867188 C 170.964844 127.65625 171.589844 127.367188 172.179688 127.007812 C 172.769531 126.644531 173.304688 126.21875 173.792969 125.726562 C 174.28125 125.234375 174.703125 124.691406 175.058594 124.09375 C 175.414062 123.5 175.695312 122.875 175.898438 122.210938 C 179.054688 111.59375 169.960938 104.355469 161.800781 107.097656 L 151.179688 110.679688 C 150.738281 110.828125 150.285156 110.886719 149.820312 110.851562 C 149.359375 110.820312 148.917969 110.699219 148.5 110.492188 C 148.085938 110.28125 147.722656 110 147.417969 109.648438 C 147.117188 109.296875 146.890625 108.898438 146.742188 108.457031 L 139.671875 87.390625 C 139.523438 86.949219 139.464844 86.496094 139.496094 86.03125 C 139.53125 85.566406 139.648438 85.125 139.859375 84.707031 C 140.066406 84.289062 140.347656 83.929688 140.699219 83.625 C 141.050781 83.316406 141.445312 83.09375 141.886719 82.945312 L 152.511719 79.390625 C 160.621094 76.671875 163.550781 65.511719 154.828125 58.917969 C 154.246094 58.5 153.625 58.15625 152.960938 57.886719 C 152.296875 57.621094 151.613281 57.433594 150.902344 57.335938 C 150.195312 57.234375 149.484375 57.21875 148.773438 57.289062 C 148.0625 57.359375 147.367188 57.515625 146.695312 57.757812 L 134.25 61.90625 C 133.878906 62.03125 133.5 62.082031 133.109375 62.054688 C 132.722656 62.027344 132.351562 61.925781 132.003906 61.753906 C 131.65625 61.582031 131.351562 61.347656 131.097656 61.050781 C 130.839844 60.757812 130.648438 60.425781 130.527344 60.054688 L 126.632812 48.371094 C 123.921875 40.25 112.78125 37.308594 106.199219 46.050781 C 105.78125 46.632812 105.441406 47.257812 105.171875 47.921875 C 104.90625 48.585938 104.722656 49.273438 104.621094 49.984375 C 104.519531 50.691406 104.503906 51.40625 104.578125 52.117188 C 104.648438 52.832031 104.804688 53.523438 105.042969 54.199219 L 109.183594 66.546875 C 109.332031 66.992188 109.390625 67.445312 109.355469 67.910156 C 109.324219 68.375 109.203125 68.816406 108.996094 69.234375 C 108.789062 69.648438 108.507812 70.011719 108.15625 70.316406 C 107.804688 70.621094 107.40625 70.847656 106.964844 70.992188 L 84.785156 78.402344 C 84.34375 78.550781 83.890625 78.609375 83.425781 78.574219 C 82.960938 78.542969 82.519531 78.421875 82.105469 78.214844 C 81.6875 78.003906 81.328125 77.726562 81.023438 77.371094 C 80.71875 77.019531 80.492188 76.621094 80.347656 76.179688 L 76.625 65.042969 C 73.914062 56.917969 62.773438 53.980469 56.195312 62.71875 C 55.777344 63.300781 55.433594 63.925781 55.164062 64.589844 C 54.898438 65.253906 54.714844 65.941406 54.613281 66.652344 C 54.511719 67.363281 54.496094 68.074219 54.570312 68.785156 C 54.640625 69.5 54.796875 70.195312 55.035156 70.871094 L 59.375 83.835938 C 59.511719 84.207031 59.570312 84.59375 59.550781 84.988281 C 59.53125 85.386719 59.4375 85.765625 59.265625 86.125 C 59.09375 86.480469 58.859375 86.792969 58.558594 87.054688 C 58.261719 87.316406 57.925781 87.511719 57.550781 87.636719 L 45.027344 91.835938 C 43.695312 92.34375 42.527344 93.109375 41.527344 94.125 C 40.523438 95.144531 39.777344 96.324219 39.285156 97.664062 C 36.820312 106.53125 42.8125 113 49.613281 113.171875 C 50.910156 113.203125 52.175781 113.015625 53.410156 112.605469 L 64.03125 109.023438 C 64.472656 108.875 64.925781 108.816406 65.390625 108.851562 C 65.855469 108.882812 66.292969 109.003906 66.710938 109.210938 C 67.125 109.421875 67.488281 109.699219 67.792969 110.054688 C 68.097656 110.40625 68.320312 110.804688 68.46875 111.246094 L 75.589844 132.335938 C 75.738281 132.777344 75.796875 133.230469 75.765625 133.695312 C 75.730469 134.164062 75.609375 134.601562 75.402344 135.019531 C 75.195312 135.4375 74.914062 135.796875 74.5625 136.105469 C 74.210938 136.410156 73.8125 136.636719 73.371094 136.78125 L 61.394531 140.804688 C 60.0625 141.316406 58.894531 142.078125 57.890625 143.097656 C 56.890625 144.113281 56.144531 145.292969 55.652344 146.632812 C 53.1875 155.5 59.175781 161.96875 65.976562 162.144531 C 67.292969 162.179688 68.574219 161.992188 69.824219 161.574219 L 80.988281 157.820312 C 81.355469 157.695312 81.734375 157.648438 82.125 157.671875 C 82.515625 157.699219 82.882812 157.800781 83.234375 157.972656 C 83.582031 158.148438 83.882812 158.382812 84.140625 158.675781 C 84.394531 158.96875 84.585938 159.304688 84.710938 159.671875 L 88.601562 171.355469 C 88.964844 172.449219 89.484375 173.460938 90.160156 174.394531 C 90.835938 175.324219 91.632812 176.132812 92.558594 176.820312 C 93.480469 177.503906 94.488281 178.035156 95.574219 178.40625 C 96.664062 178.78125 97.78125 178.980469 98.929688 179.011719 C 99.917969 179.011719 100.890625 178.898438 101.851562 178.664062 C 102.808594 178.433594 103.726562 178.089844 104.605469 177.636719 C 105.480469 177.183594 106.292969 176.632812 107.039062 175.984375 C 107.78125 175.335938 108.441406 174.605469 109.011719 173.800781 C 109.441406 173.21875 109.796875 172.589844 110.074219 171.921875 C 110.351562 171.253906 110.542969 170.558594 110.652344 169.84375 C 110.757812 169.125 110.777344 168.40625 110.710938 167.683594 C 110.640625 166.960938 110.484375 166.257812 110.242188 165.574219 L 106.078125 153.226562 C 105.929688 152.785156 105.871094 152.332031 105.902344 151.867188 C 105.9375 151.402344 106.058594 150.960938 106.265625 150.542969 C 106.472656 150.125 106.753906 149.765625 107.105469 149.460938 C 107.457031 149.15625 107.855469 148.929688 108.296875 148.78125 L 130.476562 141.375 C 130.917969 141.226562 131.371094 141.167969 131.835938 141.199219 C 132.300781 141.234375 132.738281 141.355469 133.15625 141.5625 C 133.574219 141.769531 133.933594 142.050781 134.238281 142.402344 C 134.542969 142.757812 134.765625 143.15625 134.914062 143.597656 L 138.636719 154.734375 C 139 155.824219 139.519531 156.832031 140.191406 157.761719 C 140.867188 158.691406 141.664062 159.496094 142.585938 160.179688 C 143.507812 160.859375 144.507812 161.386719 145.59375 161.761719 C 146.675781 162.136719 147.792969 162.335938 148.9375 162.367188 C 149.945312 162.359375 150.933594 162.226562 151.910156 161.96875 C 152.882812 161.714844 153.8125 161.34375 154.695312 160.855469 C 155.578125 160.371094 156.386719 159.78125 157.121094 159.089844 C 157.855469 158.402344 158.496094 157.632812 159.042969 156.785156 C 159.453125 156.210938 159.789062 155.597656 160.050781 154.941406 C 160.3125 154.289062 160.496094 153.609375 160.597656 152.914062 C 160.699219 152.214844 160.714844 151.515625 160.648438 150.8125 C 160.582031 150.109375 160.429688 149.425781 160.199219 148.757812 L 155.863281 135.792969 C 155.742188 135.425781 155.695312 135.046875 155.722656 134.660156 C 155.75 134.273438 155.851562 133.90625 156.023438 133.558594 C 156.199219 133.210938 156.429688 132.910156 156.722656 132.65625 C 157.015625 132.402344 157.34375 132.214844 157.710938 132.089844 Z M 122.417969 120.382812 L 102.234375 127.148438 C 101.945312 127.246094 101.65625 127.316406 101.355469 127.355469 C 101.058594 127.394531 100.757812 127.402344 100.457031 127.382812 C 100.15625 127.363281 99.859375 127.3125 99.566406 127.234375 C 99.277344 127.15625 98.996094 127.050781 98.726562 126.914062 C 98.457031 126.78125 98.203125 126.621094 97.960938 126.4375 C 97.722656 126.253906 97.503906 126.046875 97.308594 125.820312 C 97.109375 125.589844 96.933594 125.347656 96.785156 125.082031 C 96.636719 124.820312 96.511719 124.546875 96.417969 124.261719 L 90.058594 105.171875 C 89.960938 104.890625 89.894531 104.601562 89.855469 104.304688 C 89.8125 104.007812 89.804688 103.710938 89.820312 103.414062 C 89.839844 103.117188 89.882812 102.824219 89.960938 102.535156 C 90.035156 102.246094 90.136719 101.96875 90.265625 101.699219 C 90.394531 101.429688 90.546875 101.175781 90.726562 100.9375 C 90.90625 100.699219 91.105469 100.480469 91.324219 100.28125 C 91.546875 100.078125 91.785156 99.902344 92.039062 99.75 C 92.292969 99.597656 92.5625 99.46875 92.84375 99.367188 L 113.027344 92.578125 C 113.3125 92.480469 113.605469 92.414062 113.90625 92.371094 C 114.203125 92.332031 114.503906 92.324219 114.804688 92.34375 C 115.105469 92.363281 115.402344 92.414062 115.691406 92.492188 C 115.984375 92.570312 116.265625 92.679688 116.535156 92.8125 C 116.804688 92.945312 117.058594 93.105469 117.296875 93.289062 C 117.535156 93.476562 117.753906 93.679688 117.953125 93.910156 C 118.152344 94.136719 118.324219 94.382812 118.476562 94.644531 C 118.625 94.90625 118.75 95.179688 118.84375 95.464844 L 125.203125 114.507812 C 125.304688 114.789062 125.378906 115.082031 125.421875 115.382812 C 125.464844 115.679688 125.480469 115.980469 125.464844 116.28125 C 125.449219 116.585938 125.40625 116.882812 125.332031 117.175781 C 125.257812 117.46875 125.15625 117.75 125.027344 118.023438 C 124.898438 118.296875 124.742188 118.554688 124.5625 118.796875 C 124.382812 119.039062 124.183594 119.261719 123.957031 119.464844 C 123.734375 119.667969 123.492188 119.84375 123.234375 120 C 122.972656 120.15625 122.703125 120.28125 122.417969 120.382812 Z M 122.417969 120.382812 " fill-opacity="1" fill-rule="nonzero"/></g></svg>